<svg width="62" height="92" viewBox="0 0 62 92" fill="none" xmlns="http://www.w3.org/2000/svg">
<path fill-rule="evenodd" clip-rule="evenodd" d="M24.9268 37.4241C19.3335 40.8422 14.6724 40.2207 11.5651 34.6274C8.76843 29.9664 4.10737 33.3845 1 29.0342C2.86442 26.2375 5.66106 25.3053 8.76843 24.9946C7.52548 23.4409 7.21475 22.5087 6.59327 20.955C2.86442 19.4013 5.9718 17.5369 9.07917 17.8476C7.52548 17.2262 7.21475 15.6725 7.21475 14.1188C7.52548 11.0114 10.3221 10.0792 12.1865 8.21477C13.4295 6.97182 13.4295 5.72887 15.2939 4.48592C16.8476 3.55371 20.8872 2.93223 23.0624 2.6215C24.9268 2.6215 26.4805 2.6215 27.1019 4.17518C28.9664 -2.03956 42.3281 2.00002 44.5032 6.66108C46.3677 10.7007 45.7462 14.4295 40.7744 18.1584C44.1925 16.2939 48.8535 22.198 50.718 24.6838C47.6106 26.2375 44.1925 26.2375 41.0851 28.7234C40.4636 29.3449 36.4241 34.006 35.1811 34.006C32.6952 37.7348 26.7912 38.0456 24.9268 37.4241ZM13.1188 21.8872C16.2261 22.198 18.0906 24.0624 18.4013 25.9268C14.051 21.8872 12.1865 23.7516 8.4577 21.5765C11.2543 27.4805 17.4691 36.4919 25.859 36.4919C28.3449 36.4919 34.8704 35.2489 34.5596 29.9664C29.2771 28.7234 26.1697 28.4127 21.5087 24.6838C14.6724 17.2262 2.86442 18.7798 8.14696 20.6443C9.07917 20.955 10.6329 21.5765 13.1188 21.8872ZM28.0341 6.35034C31.1415 6.35034 33.9382 4.79666 35.4918 6.03961C37.3563 6.97182 37.9777 13.808 35.1811 17.2262C39.2207 16.2939 39.8422 12.5651 39.8422 11.3221C41.7066 14.1188 37.667 18.1584 35.1811 18.7798C35.8026 20.3335 36.1133 23.7516 35.8026 25.9268C37.3563 22.5087 37.9777 19.712 40.4636 16.9154C42.3281 14.4295 45.1247 12.5651 42.9495 7.59329C41.0851 3.86445 30.52 0.446335 28.6556 4.17518C28.3449 4.79666 28.0341 4.79666 28.0341 6.35034ZM24.9268 25.3053C27.1019 26.859 30.8308 27.7912 33.9382 28.4127C34.5596 25.6161 35.1811 23.4409 33.6274 19.712C31.4523 22.1979 28.3449 23.4409 24.9268 25.3053ZM33.0059 9.14698C35.4918 14.7403 30.52 17.2262 26.4805 20.6443C25.5483 21.8872 23.9946 23.1302 23.3731 24.0624C23.9946 24.0624 31.4523 20.6443 33.6274 17.8476C35.1811 15.9832 36.7348 9.14698 34.8704 7.90403C33.6274 6.66108 32.0737 7.59329 33.0059 9.14698ZM14.6724 18.4691C14.3617 17.2262 12.4973 13.4973 13.7402 11.0114C14.6724 10.7007 16.5369 10.7007 17.7798 11.0114C18.4013 9.45772 18.712 8.21477 19.955 7.28256C21.8194 6.03961 23.3731 6.66108 24.9268 6.03961C26.1697 5.41813 27.1019 3.24297 23.0624 3.86445C20.2657 4.17518 16.8476 5.10739 15.9154 5.72887C14.3617 6.66108 14.3617 7.59329 12.808 9.14698C11.2543 11.0114 8.76843 11.3221 8.4577 13.808C8.4577 15.051 8.76843 16.2939 10.0114 16.9154C10.9436 17.5369 13.4295 18.4691 14.6724 18.4691ZM35.8026 28.7234C36.4241 30.2771 35.8026 31.8308 35.8026 32.4523C35.8026 32.4523 37.3563 30.8986 40.7744 27.4805C43.2603 25.3053 46.6784 24.9946 48.8535 24.3731C45.1247 19.7121 43.2603 19.0906 41.7066 19.4013C38.5992 20.0228 37.9777 26.2375 35.8026 28.7234ZM2.86442 28.7234C5.03959 31.8308 9.70065 29.0342 12.808 33.6952C15.2939 37.7348 16.8476 38.9778 23.0624 37.4241C15.6047 36.1811 10.3221 27.4805 9.70065 26.2375C7.21475 26.5483 4.41811 26.859 2.86442 28.7234ZM18.4013 20.0228C18.712 18.1584 15.9154 18.4691 16.8476 13.4973C20.5765 16.9154 24.9268 16.9154 27.7234 16.6047C23.0624 19.0906 18.712 16.6047 17.7798 15.6725C17.4691 17.2262 19.955 17.8476 19.955 20.6443C20.2657 21.5765 21.1979 22.5087 22.4409 23.4409C26.7912 17.5369 30.2093 17.8476 31.763 14.1188C26.7912 16.6047 22.7516 15.9832 19.955 14.1188C18.0906 12.8758 18.0906 12.2544 14.9832 12.5651C14.6724 15.6725 16.2261 19.0906 18.4013 20.0228ZM24.3053 12.2544C25.5483 13.4973 26.4805 13.4973 28.3449 11.9436C27.1019 10.7007 26.7912 11.3221 25.2375 12.2544C27.1019 8.21477 29.2771 10.3899 30.2093 12.2544C35.1811 8.52551 23.3731 6.35034 24.3053 12.2544ZM19.0228 11.6329C20.8872 12.5651 21.1979 13.4973 23.0624 13.1866C22.1301 10.3899 23.3731 9.45772 24.3053 7.59329C21.8194 7.90403 21.5087 7.90403 20.8872 8.52551C19.955 8.83624 19.6442 9.45772 19.0228 11.6329ZM25.2375 8.21477C25.859 7.90403 26.7912 7.90403 27.7234 7.59329C29.2771 7.59329 30.52 7.90403 31.4523 8.83624C31.4523 8.52551 31.1415 8.21477 31.1415 7.59329C31.4523 7.28256 31.4523 6.97182 31.763 6.97182C30.8308 6.97182 29.8986 7.28256 29.2771 7.28256C28.6556 7.28256 28.0341 7.59329 27.4127 7.28256H26.7912C26.7912 6.66108 26.7912 6.03961 26.7912 5.41813C26.4805 6.03961 26.1697 6.66108 25.2375 6.97182H26.1697C25.859 7.28256 25.5483 7.90403 25.2375 8.21477ZM24.9268 14.1188C24.3053 14.1188 23.6838 14.1188 23.0624 14.1188C25.859 14.7403 28.0341 14.4295 29.8986 13.808C29.5878 13.4973 29.2771 13.1866 28.9664 12.5651C27.7234 13.808 26.4805 14.4295 24.9268 14.1188ZM31.1415 12.8758C31.4523 12.8758 32.0737 12.5651 32.6952 12.5651C32.6952 11.9436 32.6952 11.6329 32.3845 11.3221C32.3845 11.9436 31.763 12.2544 31.1415 12.8758Z" fill="#8A0000" stroke="#8A0000"/>
<path d="M41.6143 40.1387C41.6144 40.1383 41.6146 40.138 41.6147 40.1376L41.6268 40.1345L41.6143 40.1387ZM43.6581 39.4628L43.4495 39.5671V39.3166C43.4499 39.3148 43.4503 39.3128 43.4508 39.3106C43.4535 39.299 43.457 39.2848 43.4616 39.2679C43.4739 39.2872 43.4892 39.3083 43.508 39.3297C43.541 39.3672 43.5961 39.4179 43.6752 39.4542L43.6581 39.4628ZM43.4467 39.3307C43.4467 39.3307 43.4468 39.3301 43.4471 39.3287L43.4467 39.3307ZM47.8365 37.6974L47.6288 37.6281L47.7479 37.5941L48.2687 37.4453L47.9801 37.6137L47.8365 37.6974Z" fill="white" stroke="black"/>
<path fill-rule="evenodd" clip-rule="evenodd" d="M30.5201 91.1816C31.1415 91.1816 31.763 91.1816 32.6952 91.1816C19.0228 68.1871 33.006 61.6616 33.6274 48.6106L34.5597 47.3677C37.0456 43.0173 41.0851 45.5032 45.1247 45.5032L48.5428 45.1925L47.6106 44.571C48.2321 44.2603 49.1643 44.2603 49.4751 43.9496L52.5824 42.7066L51.6502 42.3959C52.2717 42.0851 52.8932 41.7744 53.2039 41.4637L55.0683 39.91H54.7576C55.0683 39.5992 55.0683 39.5992 55.3791 39.2885L56.9328 37.7348L56.0005 37.4241C56.622 36.8026 57.2435 36.1811 58.1757 35.5597L60.6616 34.006L57.865 33.0738C56.0005 32.763 54.4469 32.4523 52.5824 32.1415L52.8932 31.5201H50.4073C50.0965 31.5201 49.7858 31.5201 49.4751 31.8308V31.5201L47.6106 31.8308C46.6784 31.8308 46.0569 32.1415 45.4355 32.4523V31.5201L43.8818 32.1415C43.571 32.4523 43.2603 32.4523 42.9496 32.763V32.4523L41.0851 34.006V33.0738L38.91 35.5597C37.667 36.8026 36.7348 39.2885 36.1133 41.1529C36.1133 41.4637 34.5597 42.0851 33.006 43.0173C32.6952 41.4637 32.0738 39.5992 31.1415 37.7348C30.5201 38.0455 29.8986 38.3563 29.2771 38.3563C33.006 46.1247 31.4523 51.4073 28.9664 57.0005C27.7234 55.4468 26.1698 54.8254 26.1698 54.5146C25.859 52.6502 25.2375 50.1643 23.9946 48.6106L22.1302 45.814V46.7462L20.2657 45.1925C19.955 45.1925 19.6443 44.8818 19.6443 44.8818L17.7798 43.9496V44.571C17.1584 44.2603 16.5369 43.9496 15.9154 43.6388L13.7403 43.3281V43.6388C13.4295 43.3281 13.1188 43.3281 12.808 43.3281L10.6329 43.0173L10.9436 43.6388C9.0792 43.6388 7.21477 43.6388 5.35035 43.9496L2.55371 44.571L4.72887 46.4355C5.66108 47.0569 6.28256 47.6784 6.90403 48.6106L5.97182 48.9214L7.21477 50.475C7.21477 50.7858 7.52551 50.7858 7.83625 51.0965H7.52551L9.0792 52.6502C9.38993 53.2717 10.0114 53.5824 10.3221 53.8932L9.38993 54.2039L12.4973 55.7576C12.808 56.0683 13.7403 56.0683 14.3617 56.3791L13.4295 57.0005L16.5369 57.622C20.5765 58.2435 24.9268 56.0683 27.102 60.7294V61.0401C23.9946 68.1871 21.5087 76.577 30.5201 91.1816ZM33.6274 46.1247C33.6274 45.5032 33.6274 45.1925 33.3167 44.571C34.5597 43.0173 36.7348 43.0173 37.3563 41.4637C37.9778 39.91 38.91 37.4241 39.8422 36.1811C39.8422 36.4919 39.8422 36.8026 39.8422 36.8026C40.4637 36.4919 41.0851 35.2489 41.7066 34.9382V35.2489C42.3281 34.9382 43.571 33.6952 44.1925 33.3845V34.006C45.1247 34.006 46.6784 33.0738 47.6106 33.0738V33.3845C48.2321 33.3845 49.7858 33.0738 50.4073 33.0738L50.0965 33.3845C52.5824 33.3845 55.3791 33.6952 57.5542 34.3167C56.0005 35.5597 54.7576 36.8026 53.5146 38.0455L54.4469 38.3563C53.8254 38.9778 51.961 39.5992 51.3395 40.2207L52.2717 40.5314C51.6502 41.1529 49.1643 42.0851 48.2321 42.3959L49.1643 42.7066C48.2321 43.0173 45.4355 43.3281 44.5033 43.6388L45.1247 44.2603C41.3959 44.2603 36.7348 41.7744 33.6274 46.1247ZM28.3449 58.2435L27.7234 59.4864C25.2375 54.8254 20.2657 57.0005 16.8476 56.3791L17.4691 55.7576C16.5369 55.7576 13.7403 55.1361 13.1188 54.5146L14.051 54.2039C13.1188 53.8932 10.6329 52.6502 10.0114 52.0287L10.9436 51.718C10.3221 51.0965 8.45772 50.1643 8.14698 49.5428H9.0792C8.14698 47.9891 6.90403 46.4355 5.66108 45.1925C7.83625 44.8818 10.6329 44.8818 12.808 44.8818V44.571C13.4295 44.571 14.9832 45.1925 15.6047 45.5032V44.8818C16.5369 45.1925 18.0906 46.1247 18.7121 46.4355V45.814C19.3335 46.1247 20.5765 47.6784 21.198 47.9891V47.6784C21.8194 47.9891 22.4409 49.2321 22.7516 49.8536C22.7516 49.8536 22.7516 49.2321 23.0624 49.2321C23.6839 50.475 24.6161 52.9609 24.9268 54.8254C25.2375 56.0683 27.4127 56.3791 28.3449 58.2435Z" fill="#21331C" stroke="#21331C"/>
<path d="M20.8727 53.0754L20.6999 52.9602L20.9139 53.0672L20.8727 53.0754ZM18.7688 51.4072L18.7688 51.4073H18.712L18.7688 51.4072Z" fill="white" stroke="black"/>
</svg>
