<?xml version="1.0" standalone="no"?>
<!DOCTYPE svg PUBLIC "-//W3C//DTD SVG 20010904//EN"
 "http://www.w3.org/TR/2001/REC-SVG-20010904/DTD/svg10.dtd">
<svg version="1.0" xmlns="http://www.w3.org/2000/svg"
 width="43.000000pt" height="45.000000pt" viewBox="0 0 43.000000 45.000000"
 preserveAspectRatio="xMidYMid meet">
<metadata>
Created by potrace 1.10, written by Peter Selinger 2001-2011
</metadata>
<g transform="translate(0.000000,45.000000) scale(0.100000,-0.100000)"
fill="#eb8900" stroke="none">
<path d="M125 426 c-16 -8 -46 -30 -64 -50 l-35 -36 187 0 187 0 -16 25 c-31
47 -93 75 -165 75 -35 -1 -77 -7 -94 -14z m148 -10 c15 -4 27 -11 27 -16 0 -6
6 -10 14 -10 7 0 19 -7 26 -15 11 -13 -4 -15 -124 -15 -75 0 -136 2 -136 4 0
12 68 51 99 57 36 6 42 6 94 -5z"/>
<path d="M5 290 c0 -29 2 -30 43 -30 29 0 56 9 90 30 l47 30 -90 0 -90 0 0
-30z m85 0 c-20 -13 -73 -13 -65 0 3 6 23 10 43 10 28 0 33 -3 22 -10z"/>
<path d="M165 290 l-50 -30 100 0 100 0 -47 30 c-27 17 -49 30 -50 29 -2 0
-25 -13 -53 -29z"/>
<path d="M260 316 c0 -2 18 -15 40 -30 27 -18 53 -26 82 -26 41 0 43 2 44 30
l1 30 -83 0 c-46 0 -84 -2 -84 -4z m150 -26 c0 -5 -13 -10 -29 -10 -17 0 -33
5 -36 10 -4 6 8 10 29 10 20 0 36 -4 36 -10z"/>
<path d="M4 238 c-3 -5 -1 -8 4 -8 6 0 8 -9 5 -21 -4 -12 0 -25 8 -31 11 -7
11 -11 2 -15 -8 -3 -13 -23 -13 -49 0 -40 2 -44 25 -44 14 0 25 6 25 13 0 8 3
7 10 -3 14 -23 16 -11 10 80 l-5 85 -33 0 c-19 0 -36 -3 -38 -7z m56 -28 c-12
-8 -13 -12 -2 -19 12 -7 12 -12 1 -29 -13 -21 -14 -20 -24 11 -14 39 -10 47
18 47 18 0 19 -2 7 -10z m-10 -90 c0 -5 -4 -10 -9 -10 -6 0 -13 5 -16 10 -3 6
1 10 9 10 9 0 16 -4 16 -10z"/>
<path d="M100 160 c0 -73 3 -90 15 -90 12 0 15 17 15 90 0 73 -3 90 -15 90
-12 0 -15 -17 -15 -90z"/>
<path d="M150 160 c0 -73 3 -90 15 -90 12 0 15 17 15 90 0 73 -3 90 -15 90
-12 0 -15 -17 -15 -90z"/>
<path d="M200 158 c0 -72 3 -88 15 -88 12 0 15 16 15 88 0 72 -3 89 -15 89
-12 0 -15 -17 -15 -89z"/>
<path d="M250 158 c0 -72 3 -88 15 -88 12 0 15 16 15 88 0 72 -3 89 -15 89
-12 0 -15 -17 -15 -89z"/>
<path d="M300 160 c0 -73 3 -90 15 -90 12 0 15 17 15 90 0 73 -3 90 -15 90
-12 0 -15 -17 -15 -90z"/>
<path d="M351 155 c0 -50 3 -84 6 -77 2 6 9 12 14 12 6 0 7 -4 4 -10 -4 -6 6
-10 23 -10 27 0 29 2 28 43 -1 24 -7 47 -16 54 -13 11 -13 12 3 13 19 0 23 25
7 35 -8 5 -8 11 -1 19 8 9 0 12 -29 11 l-40 0 1 -90z m45 53 c4 -6 2 -14 -4
-16 -8 -2 -9 -9 -2 -22 7 -13 6 -19 -5 -24 -12 -4 -14 3 -13 34 1 40 10 50 24
28z m14 -88 c0 -5 -4 -10 -9 -10 -6 0 -13 5 -16 10 -3 6 1 10 9 10 9 0 16 -4
16 -10z"/>
<path d="M9 58 c-12 -43 -9 -48 35 -48 40 0 44 2 44 25 0 22 -5 25 -39 25 -22
0 -39 -1 -40 -2z"/>
<path d="M113 45 c-24 -27 -14 -35 42 -35 30 0 55 5 55 10 0 6 5 10 11 10 5 0
7 -4 4 -10 -4 -6 15 -10 49 -10 57 0 68 9 42 36 -20 20 -186 19 -203 -1z m57
-15 c0 -5 -5 -10 -11 -10 -5 0 -7 5 -4 10 3 6 8 10 11 10 2 0 4 -4 4 -10z
m105 0 c3 -5 1 -10 -4 -10 -6 0 -11 5 -11 10 0 6 2 10 4 10 3 0 8 -4 11 -10z"/>
<path d="M350 35 c0 -22 4 -25 40 -25 36 0 40 3 40 25 0 23 -4 25 -40 25 -36
0 -40 -2 -40 -25z"/>
</g>
</svg>
